<?xml version="1.0" encoding="utf-8"?>
<svg xmlns="http://www.w3.org/2000/svg" width="545" height="134" viewBox="0 0 545 134" fill="none">
<path d="M203.05 109.276C220.496 109.276 232.802 100.742 232.802 81.493V40.6533H217.476V79.7286C217.476 91.0533 211.468 95.7693 203.05 95.7693C194.632 95.7693 188.624 91.1175 188.624 79.7286V40.6533H173.202V81.493C173.202 100.742 185.604 109.276 203.05 109.276Z" fill="#101A42"/>
<path d="M273.863 58.0075C271.04 57.9131 268.231 58.4587 265.649 59.6033C263.067 60.7479 260.779 62.4618 258.955 64.6163L257.381 59.2587H244.786V107.734H259.051V81.5233C259.79 73.0538 264.224 70.0702 268.69 70.0702C274.763 70.0702 277.365 74.2408 277.365 81.3308V107.734H291.63V77.3206C291.63 62.6594 281.992 58.0717 273.895 58.0717L273.863 58.0075Z" fill="#101A42"/>
<path d="M311.358 51.6559C312.909 51.6055 314.411 51.1002 315.677 50.2029C316.942 49.3056 317.915 48.0562 318.474 46.6104C319.033 45.1646 319.154 43.5865 318.82 42.0729C318.487 40.5592 317.715 39.1771 316.6 38.0989C315.485 37.0207 314.077 36.2942 312.551 36.0099C311.025 35.7256 309.449 35.8962 308.02 36.5003C306.591 37.1044 305.371 38.1154 304.514 39.4071C303.656 40.6988 303.198 42.2141 303.197 43.7639C303.24 45.8883 304.121 47.91 305.65 49.3883C307.178 50.8666 309.23 51.6817 311.358 51.6559Z" fill="#101A42"/>
<path d="M318.33 59.2598H304.193V107.767H318.33V59.2598Z" fill="#101A42"/>
<path d="M366.909 40.7158H351.037L324.691 107.606H340.756L345.832 93.6503H371.536L376.612 107.606H393.126L366.909 40.7158ZM349.913 82.8709L359.134 56.2433L368.323 82.8709H349.913Z" fill="#F05D4E"/>
<path d="M422.01 109.276C428.28 109.439 434.43 107.546 439.52 103.887L431.617 93.2998C430.451 94.4916 429.056 95.4357 427.515 96.0753C425.975 96.7148 424.321 97.0366 422.653 97.0212C415.231 97.0212 410.443 91.5353 410.443 83.6433C410.443 75.7512 415.231 70.2653 422.653 70.2653C424.321 70.2499 425.975 70.5717 427.515 71.2112C429.056 71.8508 430.451 72.7949 431.617 73.9867L439.585 63.3678C434.474 59.7042 428.298 57.8215 422.01 58.0102C418.708 57.8725 415.412 58.3857 412.309 59.5205C409.206 60.6553 406.357 62.3895 403.925 64.6239C401.493 66.8583 399.527 69.5492 398.137 72.5429C396.747 75.5366 395.961 78.7744 395.825 82.0713V83.6112C395.687 90.2714 398.201 96.7142 402.815 101.526C407.429 106.337 413.766 109.125 420.436 109.276H422.01Z" fill="#F05D4E"/>
<path d="M469.659 109.276C475.937 109.43 482.095 107.538 487.201 103.887L479.265 93.2998C478.1 94.4916 476.705 95.4357 475.164 96.0752C473.624 96.7148 471.97 97.0366 470.301 97.0212C462.879 97.0212 458.092 91.5353 458.092 83.6432C458.092 75.7512 462.879 70.2653 470.301 70.2653C471.97 70.2499 473.624 70.5717 475.164 71.2112C476.705 71.8508 478.1 72.7948 479.265 73.9867L487.265 63.3677C482.138 59.7146 475.955 57.8334 469.659 58.0101C466.359 57.8725 463.064 58.386 459.962 59.5212C456.861 60.6564 454.015 62.391 451.586 64.6258C449.156 66.8606 447.192 69.5518 445.806 72.5452C444.42 75.5387 443.638 78.7758 443.506 82.0712C443.473 82.584 443.473 83.0983 443.506 83.6111C443.433 86.9101 444.012 90.1911 445.21 93.2665C446.408 96.3419 448.2 99.1516 450.486 101.535C452.771 103.918 455.505 105.829 458.53 107.157C461.555 108.485 464.813 109.205 468.116 109.276H469.659Z" fill="#F05D4E"/>
<path d="M517.979 58.1699C502.107 58.1699 490.99 68.9493 490.99 83.5143C490.99 98.0793 502.107 109.179 517.979 109.179C533.851 109.179 544.967 98.4001 544.967 83.5143C544.967 68.6285 533.851 58.1699 517.979 58.1699ZM530.381 83.5143C530.535 85.147 530.367 86.7942 529.884 88.3617C529.401 89.9292 528.613 91.3862 527.565 92.6495C526.518 93.9128 525.232 94.9576 523.78 95.7242C522.328 96.4907 520.739 96.9639 519.103 97.1168H517.979C516.402 97.1295 514.839 96.8315 513.378 96.2398C511.917 95.6481 510.587 94.7745 509.465 93.6688C508.343 92.5632 507.45 91.2473 506.838 89.7966C506.226 88.3458 505.907 86.7888 505.898 85.2146C505.882 84.9582 505.882 84.7011 505.898 84.4447V83.418C505.647 80.2015 506.666 77.0144 508.737 74.5383C510.809 72.0623 513.768 70.4938 516.983 70.1684H517.947C521.256 70.1938 524.42 71.5287 526.745 73.8802C529.07 76.2317 530.366 79.4079 530.348 82.7123V83.418L530.381 83.5143Z" fill="#F05D4E"/>
<path d="M122.342 59.2281C122.35 60.2557 122.154 61.2748 121.765 62.2263C121.376 63.1777 120.802 64.0426 120.076 64.7708C119.35 65.499 118.486 66.0759 117.535 66.4682C116.583 66.8605 115.564 67.0602 114.534 67.056C112.773 67.0771 111.058 66.4875 109.683 65.3877L108.494 64.1686L61.0393 18.5488L13.1347 64.6498L12.7813 65.0027C11.3221 66.1859 9.48561 66.8062 7.60668 66.7504C5.72776 66.6947 3.93144 65.9666 2.54512 64.699C1.1588 63.4314 0.274786 61.7086 0.0541874 59.8446C-0.166411 57.9806 0.291096 56.0995 1.34333 54.5442L2.91765 52.8759L10.6608 45.433L26.2755 30.4189L49.7941 7.76938L55.5452 2.28345C56.2649 1.55984 57.1209 0.985549 58.0638 0.593653C59.0067 0.201758 60.018 0 61.0393 0C62.0606 0 63.0719 0.201758 64.0148 0.593653C64.9577 0.985549 65.8137 1.55984 66.5334 2.28345L72.2524 7.76938L119.225 52.9722L120.607 54.2554C121.738 55.6554 122.361 57.397 122.374 59.196" fill="#F05D4E"/>
<path d="M61.6826 114.408L89.6671 100.581V51.9131L106.374 67.6651L106.824 110.494L61.8433 133.721L61.6826 114.408Z" fill="#111A41"/>
<path d="M60.3653 114.408L32.445 100.581V51.9131L15.77 67.6651L15.2881 110.494L60.2689 133.721L60.3653 114.408Z" fill="#111A41"/>
</svg>